<?xml version="1.0" encoding="UTF-8"?>
<svg version="1.1" xmlns="http://www.w3.org/2000/svg" width="406" height="99">
<path d="M0 0 C0.82935059 0.00467285 1.65870117 0.0093457 2.51318359 0.01416016 C8.68918157 0.16378548 13.19275164 1.09589918 18.5 4.4375 C18.995 5.4275 18.995 5.4275 19.5 6.4375 C20.49 6.7675 21.48 7.0975 22.5 7.4375 C22.5 5.1275 22.5 2.8175 22.5 0.4375 C26.13 0.4375 29.76 0.4375 33.5 0.4375 C33.5 2.7475 33.5 5.0575 33.5 7.4375 C34.634375 7.416875 35.76875 7.39625 36.9375 7.375 C40.5 7.4375 40.5 7.4375 41.5 8.4375 C41.57205511 10.12358966 41.58386068 11.81250659 41.5625 13.5 C41.55347656 14.41910156 41.54445313 15.33820312 41.53515625 16.28515625 C41.52355469 16.99542969 41.51195313 17.70570312 41.5 18.4375 C39.85 18.7675 38.2 19.0975 36.5 19.4375 C37.4590625 20.613125 37.4590625 20.613125 38.4375 21.8125 C42.00822814 26.35706309 41.8806355 29.80650255 41.8671875 35.48828125 C41.5 38.4375 41.5 38.4375 39 41.375 C35.48368258 45.68248884 36.36239988 48.99373207 36.5703125 54.375 C36.47575211 58.49363042 35.27196862 60.44077717 32.5 63.4375 C31.2315625 64.613125 31.2315625 64.613125 29.9375 65.8125 C26.92815564 69.05333239 25.44260648 72.12594812 24.5 76.4375 C24.78639786 79.21497682 24.78639786 79.21497682 25.5 81.4375 C24.5 83.4375 24.5 83.4375 22.78515625 84.078125 C21.68494141 84.37976563 21.68494141 84.37976563 20.5625 84.6875 C16.79099987 85.82840835 14.12483812 87.3290361 10.9375 89.625 C3.584354 94.23648938 -5.36613821 93.46298244 -13.609375 91.81640625 C-18.9838408 90.28198036 -23.37904928 88.9220023 -26.8125 84.375 C-28.80210336 80.62385058 -28.71387667 77.59902278 -28.25 73.453125 C-27.2696904 70.81854294 -25.83065947 69.92235563 -23.5 68.4375 C-24.47839844 67.69306641 -24.47839844 67.69306641 -25.4765625 66.93359375 C-39.66278703 55.90683811 -39.66278703 55.90683811 -41.203125 46.98828125 C-41.67337298 42.94786111 -42.00274003 38.90341624 -42.25390625 34.84375 C-42.23892232 32.48807934 -42.23892232 32.48807934 -43.5 31.4375 C-43.6875 28.5 -43.6875 28.5 -43.5 25.4375 C-41.5 23.4375 -41.5 23.4375 -39.59765625 23.12890625 C-36.4808251 22.10157084 -35.67642193 20.10544546 -33.9375 17.375 C-25.60028373 5.45804961 -14.36225257 -0.17767135 0 0 Z M-27.12109375 15.21875 C-34.34668796 24.30029484 -37.42100523 33.88951136 -36.5 45.4375 C-35.19600478 52.47907417 -30.67916435 57.68718365 -25.5 62.4375 C-24.84 62.4375 -24.18 62.4375 -23.5 62.4375 C-23.17 63.4275 -22.84 64.4175 -22.5 65.4375 C-19.37293041 67.0010348 -15.92017557 66.83708487 -12.5 66.4375 C-11.51 65.7775 -10.52 65.1175 -9.5 64.4375 C-10.80155006 60.35785719 -10.80155006 60.35785719 -12.5 56.4375 C-12.6421988 52.59813232 -12.67754676 49.11733361 -11.5 45.4375 C-12.985 44.9425 -12.985 44.9425 -14.5 44.4375 C-16.75885324 47.69147508 -16.75885324 47.69147508 -17.5 51.4375 C-18.16 51.4375 -18.82 51.4375 -19.5 51.4375 C-19.17 50.73625 -18.84 50.035 -18.5 49.3125 C-17.40955438 46.17746884 -17.34677357 43.73186818 -17.5 40.4375 C-19.48 40.9325 -19.48 40.9325 -21.5 41.4375 C-21.41621094 40.82261719 -21.33242188 40.20773438 -21.24609375 39.57421875 C-21.14425781 38.76597656 -21.04242188 37.95773438 -20.9375 37.125 C-20.83308594 36.32449219 -20.72867187 35.52398437 -20.62109375 34.69921875 C-20.35244822 32.26932884 -20.35244822 32.26932884 -21.5 29.4375 C-21.568991 27.37604893 -21.58467727 25.31248599 -21.5625 23.25 C-21.55347656 22.16332031 -21.54445313 21.07664062 -21.53515625 19.95703125 C-21.52355469 19.12558594 -21.51195312 18.29414063 -21.5 17.4375 C-20.84 17.4375 -20.18 17.4375 -19.5 17.4375 C-19.5 20.0775 -19.5 22.7175 -19.5 25.4375 C-18.84 25.7675 -18.18 26.0975 -17.5 26.4375 C-16.9225 25.65375 -16.345 24.87 -15.75 24.0625 C-11.57745271 19.19452816 -7.63965116 19.05146512 -1.5 18.4375 C-0.44595055 14.45553543 -0.65901344 11.45554691 -1.5 7.4375 C-0.51 7.7675 0.48 8.0975 1.5 8.4375 C2.49 7.7775 3.48 7.1175 4.5 6.4375 C4.5 5.7775 4.5 5.1175 4.5 4.4375 C-7.7789876 3.74464177 -18.55033843 5.80124536 -27.12109375 15.21875 Z M-1.5 22.625 C-1.83 23.223125 -2.16 23.82125 -2.5 24.4375 C-1.96890625 24.66824219 -1.4378125 24.89898438 -0.890625 25.13671875 C3.70167309 27.25688557 6.61844851 29.11517276 9.5 33.4375 C9.644375 32.674375 9.78875 31.91125 9.9375 31.125 C11.06485356 25.73875523 11.06485356 25.73875523 13.9375 23.75 C16.5 22.4375 16.5 22.4375 18.5 22.4375 C18.83 23.0975 19.16 23.7575 19.5 24.4375 C20.16 24.4375 20.82 24.4375 21.5 24.4375 C21.17 22.7875 20.84 21.1375 20.5 19.4375 C12.88412932 16.53621593 4.38599719 16.18719057 -1.5 22.625 Z M-4.5 25.4375 C-8.4621166 31.13304262 -9.4227192 35.53378164 -8.5 42.4375 C-6.96489476 48.14720798 -3.84165395 52.79834223 1 56.1875 C6.32748811 58.85124406 11.93120437 59.34535152 17.7265625 57.87109375 C21.48485104 56.56594264 23.25313504 55.80779744 25.5 52.4375 C24.45199219 52.46070312 23.40398437 52.48390625 22.32421875 52.5078125 C20.94531963 52.52657303 19.5664128 52.54477293 18.1875 52.5625 C17.15206055 52.58763672 17.15206055 52.58763672 16.09570312 52.61328125 C12.32864604 52.64967794 10.71568296 52.58128864 7.5 50.4375 C6.18 50.4375 4.86 50.4375 3.5 50.4375 C3.5 49.7775 3.5 49.1175 3.5 48.4375 C0.86 47.7775 -1.78 47.1175 -4.5 46.4375 C-4.83 44.7875 -5.16 43.1375 -5.5 41.4375 C-4.18 41.1075 -2.86 40.7775 -1.5 40.4375 C-0.12641494 33.59974951 -0.12641494 33.59974951 -2.4375 27.3125 C-3.118125 26.69375 -3.79875 26.075 -4.5 25.4375 Z M23.5 26.4375 C23.18207337 32.47810603 24.04234783 35.83405304 26.5 41.4375 C27.01759971 44.42807608 27.30092767 47.41022773 27.5 50.4375 C30.52222092 47.58133518 31.61044559 45.5887539 32.5 41.4375 C32.57284401 36.41126311 32.54589431 31.98830881 29.6875 27.75 C27.35351163 26.09450283 27.35351163 26.09450283 23.5 26.4375 Z M-7.5 65.4375 C-7.5 66.0975 -7.5 66.7575 -7.5 67.4375 C-12.36051596 70.02977518 -17.15271133 69.62439553 -22.5 69.4375 C-25.4920565 74.64801303 -25.4920565 74.64801303 -25.5 80.4375 C-21.66429041 85.80749342 -16.73033013 87.27486005 -10.5 88.4375 C-2.35611971 89.49318819 3.71375404 88.0854595 10.5 83.4375 C16.16767894 78.84658217 19.63805715 74.11536666 22.5 67.4375 C19.51206266 66.45480061 16.64208527 65.69031146 13.5 65.4375 C10.24047859 67.02717433 10.24047859 67.02717433 7.5 69.4375 C5.953125 70.18 5.953125 70.18 4.375 70.9375 C1.484657 72.44550505 -0.33716511 74.02510724 -2.5 76.4375 C-2.17 74.7875 -1.84 73.1375 -1.5 71.4375 C-3.97627099 72.07671965 -3.97627099 72.07671965 -6.5 73.4375 C-7.86078035 75.96122901 -7.86078035 75.96122901 -8.5 78.4375 C-9.16 78.4375 -9.82 78.4375 -10.5 78.4375 C-9.87853192 76.99846954 -9.25267941 75.56133207 -8.625 74.125 C-8.27695312 73.32449219 -7.92890625 72.52398437 -7.5703125 71.69921875 C-6.5 69.4375 -6.5 69.4375 -4.5 66.4375 C-5.49 66.1075 -6.48 65.7775 -7.5 65.4375 Z " fill="#268625" transform="translate(52.5,2.5625)"/>
<path d="M0 0 C3.63 0 7.26 0 11 0 C11 2.31 11 4.62 11 7 C12.7015625 6.9690625 12.7015625 6.9690625 14.4375 6.9375 C18 7 18 7 19 8 C19.07205511 9.68608966 19.08386068 11.37500659 19.0625 13.0625 C19.05347656 13.98160156 19.04445312 14.90070312 19.03515625 15.84765625 C19.02355469 16.55792969 19.01195312 17.26820312 19 18 C16.23735711 18.59732819 13.83967231 19 11 19 C10.505 20.485 10.505 20.485 10 22 C10.598125 22.20625 11.19625 22.4125 11.8125 22.625 C14.9576201 24.60193263 15.75575579 26.52921351 17 30 C17 34.63189461 16.50571448 36.42027853 13.4375 39.9375 C12.2309375 40.9584375 12.2309375 40.9584375 11 42 C10.95101562 41.25234375 10.90203125 40.5046875 10.8515625 39.734375 C10.77679688 38.74953125 10.70203125 37.7646875 10.625 36.75 C10.52058594 35.28820313 10.52058594 35.28820313 10.4140625 33.796875 C10.01534751 31.10366811 9.36492937 29.33036721 8 27 C6.02 27 4.04 27 2 27 C1.65945878 32.5621732 2.75048777 35.96109261 5 41 C6.17905109 45.27406018 6.53805201 47.02736753 4.375 50.9375 C-0.87980165 54.14876768 -5.99867428 53.70690462 -12 53 C-14.63885591 52.24481522 -16.58935695 51.34547519 -19 50 C-19 49.34 -19 48.68 -19 48 C-19.9075 48.061875 -20.815 48.12375 -21.75 48.1875 C-25.28982642 47.98327924 -26.44931155 47.35448165 -29 45 C-28.67 43.35 -28.34 41.7 -28 40 C-26.515 39.505 -26.515 39.505 -25 39 C-23.7749276 31.81004102 -23.7749276 31.81004102 -26 25 C-25.34 24.67 -24.68 24.34 -24 24 C-19.32815331 25.64379791 -16.28896912 27.18479582 -13 31 C-12.95875 30.0925 -12.9175 29.185 -12.875 28.25 C-12 25 -12 25 -9.125 22.5625 C-8.09375 22.046875 -7.0625 21.53125 -6 21 C-5.01 21.33 -4.02 21.66 -3 22 C-3 22.66 -3 23.32 -3 24 C-2.34 24 -1.68 24 -1 24 C-1.03122943 22.03243548 -1.03122943 22.03243548 -2 20 C-4.99615946 18.6954344 -4.99615946 18.6954344 -8 18 C-8 17.01 -8 16.02 -8 15 C-12.71403788 15.47939368 -16.66579301 15.96834048 -21 18 C-20.06601394 14.85841051 -19.33205059 13.2674852 -16.75 11.1875 C-13.62298529 9.83719819 -11.3717092 9.76476447 -8 10 C-7.67 9.01 -7.34 8.02 -7 7 C-4.05610218 5.82244087 -3.10046087 5.96651304 0 7 C0 4.69 0 2.38 0 0 Z " fill="#B96D21" transform="translate(75,3)"/>
<path d="M0 0 C0.82862549 0.00322266 1.65725098 0.00644531 2.51098633 0.00976562 C8.6787082 0.15078381 13.15407331 1.20977068 18.5 4.4375 C17.44556379 7.60080864 17.11374292 8.49827138 14.5 10.4375 C13.19682724 10.78686121 11.88238361 11.09532206 10.5625 11.375 C6.82771083 12.17973358 4.93741961 13.39072549 2.5 16.4375 C2.995 16.2725 3.49 16.1075 4 15.9375 C7.53444089 15.23061182 10.89690701 15.37744845 14.5 15.4375 C14.5 16.0975 14.5 16.7575 14.5 17.4375 C13.69175781 17.63085938 12.88351563 17.82421875 12.05078125 18.0234375 C10.44783203 18.41402344 10.44783203 18.41402344 8.8125 18.8125 C7.75675781 19.06773438 6.70101562 19.32296875 5.61328125 19.5859375 C2.79593234 20.35655489 0.18331675 21.29248543 -2.5 22.4375 C-2.5 21.7775 -2.5 21.1175 -2.5 20.4375 C-8.38341765 22.01083794 -8.38341765 22.01083794 -13.5625 25.0625 C-16.30020842 31.99802799 -14.13404853 38.80534208 -11.5 45.4375 C-12.985 44.9425 -12.985 44.9425 -14.5 44.4375 C-14.9640625 45.613125 -14.9640625 45.613125 -15.4375 46.8125 C-16.5 49.4375 -16.5 49.4375 -17.5 51.4375 C-18.16 51.4375 -18.82 51.4375 -19.5 51.4375 C-18.84 47.8075 -18.18 44.1775 -17.5 40.4375 C-19.48 40.9325 -19.48 40.9325 -21.5 41.4375 C-21.48839844 40.82261719 -21.47679688 40.20773438 -21.46484375 39.57421875 C-21.45582031 38.76597656 -21.44679688 37.95773438 -21.4375 37.125 C-21.42589844 36.32449219 -21.41429688 35.52398437 -21.40234375 34.69921875 C-21.40342145 32.26888666 -21.40342145 32.26888666 -22.5 29.4375 C-22.64390411 27.42007505 -22.72051272 25.39733585 -22.75 23.375 C-22.77578125 22.31152344 -22.8015625 21.24804688 -22.828125 20.15234375 C-22.71984375 19.25644531 -22.6115625 18.36054688 -22.5 17.4375 C-21.51 16.7775 -20.52 16.1175 -19.5 15.4375 C-17.89274365 18.65201269 -18.44251815 21.87362536 -18.5 25.4375 C-17.77683594 24.80521484 -17.77683594 24.80521484 -17.0390625 24.16015625 C-16.40742187 23.61230469 -15.77578125 23.06445312 -15.125 22.5 C-14.49851562 21.95472656 -13.87203125 21.40945312 -13.2265625 20.84765625 C-9.42478099 17.74258131 -6.25578891 18.36079373 -1.5 18.4375 C-1.995 12.9925 -1.995 12.9925 -2.5 7.4375 C-1.51 7.4375 -0.52 7.4375 0.5 7.4375 C1.83981486 7.1312566 3.17511887 6.80298445 4.5 6.4375 C4.5 5.7775 4.5 5.1175 4.5 4.4375 C-6.33006999 4.77700063 -15.14909417 6.1304574 -23.5 13.4375 C-24.16 13.4375 -24.82 13.4375 -25.5 13.4375 C-25.77972656 14.02273437 -26.05945313 14.60796875 -26.34765625 15.2109375 C-27.42259959 17.28794667 -28.62032324 19.13392344 -29.9375 21.0625 C-34.98557696 29.12747502 -36.98189165 38.17489586 -35.06640625 47.5625 C-33.27303436 53.26564539 -29.65401456 57.25573033 -25.5 61.4375 C-24.695625 62.2625 -23.89125 63.0875 -23.0625 63.9375 C-19.33814188 66.11761207 -16.78085917 65.7883901 -12.5 65.4375 C-11.51 64.9425 -11.51 64.9425 -10.5 64.4375 C-10.5 63.4475 -10.5 62.4575 -10.5 61.4375 C-9.84 61.4375 -9.18 61.4375 -8.5 61.4375 C-8.5 62.0975 -8.5 62.7575 -8.5 63.4375 C-7.51 63.4375 -6.52 63.4375 -5.5 63.4375 C-5.5 64.0975 -5.5 64.7575 -5.5 65.4375 C-6.16 65.4375 -6.82 65.4375 -7.5 65.4375 C-7.5 66.0975 -7.5 66.7575 -7.5 67.4375 C-10.32130514 69.66034647 -12.29826625 70.41134933 -15.875 70.875 C-24.77399579 69.80098327 -31.60055661 62.76906822 -37.5 56.4375 C-40.67356966 51.49378371 -41.1576414 46.83868793 -41.625 41.125 C-41.62900529 35.86036824 -41.62900529 35.86036824 -43.5 31.4375 C-43.6875 28.5 -43.6875 28.5 -43.5 25.4375 C-41.5 23.4375 -41.5 23.4375 -39.59765625 23.12890625 C-36.4808251 22.10157084 -35.67642193 20.10544546 -33.9375 17.375 C-25.59893266 5.45611843 -14.36307132 -0.17478639 0 0 Z " fill="#298929" transform="translate(52.5,2.5625)"/>
<path d="M0 0 C11.29622496 -0.49114022 11.29622496 -0.49114022 14.37890625 1.66015625 C16.40429978 4.58355559 16.38935265 6.17150845 16.1875 9.6875 C16.10076749 11.45731197 16.03221169 13.22835688 16 15 C16.33 15.33 16.66 15.66 17 16 C17.79664063 14.39318359 17.79664063 14.39318359 18.609375 12.75390625 C19.32219556 11.35640279 20.03577698 9.95928723 20.75 8.5625 C21.09804688 7.85544922 21.44609375 7.14839844 21.8046875 6.41992188 C24.52331337 1.15887736 24.52331337 1.15887736 27.13378906 0.28881836 C27.74963867 0.1935083 28.36548828 0.09819824 29 0 C32.36721643 5.18882532 35.3131884 10.42735372 38 16 C38.66 15.34 39.32 14.68 40 14 C41.98 14.33 43.96 14.66 46 15 C46.33 10.38 46.66 5.76 47 1 C48.65 0.67 50.3 0.34 52 0 C53.96476237 1.96476237 53.18499562 5.63531776 53.1875 8.3125 C53.19974609 8.98990234 53.21199219 9.66730469 53.22460938 10.36523438 C53.23547998 14.07211205 53.12142421 16.89362883 51 20 C48.22368128 22.15935901 46.94660855 21.99447675 43.375 21.625 C42.26125 21.41875 41.1475 21.2125 40 21 C37.57202689 21 35.37092995 21.50085685 33 22 C32.34 20.68 31.68 19.36 31 18 C28.69 18 26.38 18 24 18 C23.34 19.32 22.68 20.64 22 22 C21.0925 21.814375 20.185 21.62875 19.25 21.4375 C16.31685676 21.04265379 14.7355343 21.05308428 12 22 C11.566875 21.195625 11.13375 20.39125 10.6875 19.5625 C9.19525998 16.72153646 9.19525998 16.72153646 6 16 C5.67 17.65 5.34 19.3 5 21 C3.35 21 1.7 21 0 21 C0 14.07 0 7.14 0 0 Z M6 6 C6 7.32 6 8.64 6 10 C7.32 10 8.64 10 10 10 C10 8.68 10 7.36 10 6 C8.68 6 7.36 6 6 6 Z M27 10 C28 12 28 12 28 12 Z " fill="#010101" transform="translate(314,38)"/>
<path d="M0 0 C3.63 0 7.26 0 11 0 C11 2.31 11 4.62 11 7 C12.7015625 6.9690625 12.7015625 6.9690625 14.4375 6.9375 C18 7 18 7 19 8 C19.07205511 9.68608966 19.08386068 11.37500659 19.0625 13.0625 C19.05347656 13.98160156 19.04445312 14.90070312 19.03515625 15.84765625 C19.02355469 16.55792969 19.01195312 17.26820312 19 18 C16.23735711 18.59732819 13.83967231 19 11 19 C10.67 19.99 10.34 20.98 10 22 C10.8971875 22.309375 10.8971875 22.309375 11.8125 22.625 C14.9576201 24.60193263 15.75575579 26.52921351 17 30 C17 34.63189461 16.50571448 36.42027853 13.4375 39.9375 C12.2309375 40.9584375 12.2309375 40.9584375 11 42 C10.95101562 41.25234375 10.90203125 40.5046875 10.8515625 39.734375 C10.77679688 38.74953125 10.70203125 37.7646875 10.625 36.75 C10.55539063 35.77546875 10.48578125 34.8009375 10.4140625 33.796875 C10.1015826 30.68415798 10.1015826 30.68415798 8 27 C5.03 27 2.06 27 -1 27 C-1.33 24.69 -1.66 22.38 -2 20 C-3.98 19.34 -5.96 18.68 -8 18 C-8 17.01 -8 16.02 -8 15 C-12.71403788 15.47939368 -16.66579301 15.96834048 -21 18 C-20.06601394 14.85841051 -19.33205059 13.2674852 -16.75 11.1875 C-13.62298529 9.83719819 -11.3717092 9.76476447 -8 10 C-7.67 9.01 -7.34 8.02 -7 7 C-4.05610218 5.82244087 -3.10046087 5.96651304 0 7 C0 4.69 0 2.38 0 0 Z " fill="#DD1615" transform="translate(75,3)"/>
<path d="M0 0 C5.15450736 0.01340574 5.15450736 0.01340574 7.58984375 1.4921875 C8.9375 2.875 8.9375 2.875 10.75 5.375 C11.03875 4.735625 11.3275 4.09625 11.625 3.4375 C12.75 1.375 12.75 1.375 14.75 0.375 C22.21666667 0.01944444 22.21666667 0.01944444 25.75 2.375 C25.09 4.025 24.43 5.675 23.75 7.375 C20.78 6.88 20.78 6.88 17.75 6.375 C18.31589844 6.58253906 18.88179687 6.79007813 19.46484375 7.00390625 C21.75748605 7.9668966 23.73023626 8.91958201 25.75 10.375 C27.01054811 14.0902997 27.2558119 16.09360985 25.8125 19.75 C22.73137643 22.17755191 19.63180011 22.60931389 15.75 22.375 C13.25 20.9375 13.25 20.9375 11.75 19.375 C11.3375 19.890625 10.925 20.40625 10.5 20.9375 C9.9225 21.411875 9.345 21.88625 8.75 22.375 C6.5625 22.0625 6.5625 22.0625 4.75 21.375 C4.42 19.725 4.09 18.075 3.75 16.375 C2.43 16.375 1.11 16.375 -0.25 16.375 C-0.25 18.025 -0.25 19.675 -0.25 21.375 C-2.23 21.375 -4.21 21.375 -6.25 21.375 C-6.27888146 18.06251813 -6.29675799 14.75006833 -6.3125 11.4375 C-6.32087891 10.49197266 -6.32925781 9.54644531 -6.33789062 8.57226562 C-6.34111328 7.67314453 -6.34433594 6.77402344 -6.34765625 5.84765625 C-6.35289307 5.01500244 -6.35812988 4.18234863 -6.36352539 3.32446289 C-6.13275847 -0.63827667 -3.39346675 0.11795473 0 0 Z M-0.25 6.375 C-0.25 7.695 -0.25 9.015 -0.25 10.375 C1.4 10.045 3.05 9.715 4.75 9.375 C4.42 8.385 4.09 7.395 3.75 6.375 C2.43 6.375 1.11 6.375 -0.25 6.375 Z M10.75 8.375 C10.09 10.685 9.43 12.995 8.75 15.375 C9.41 16.035 10.07 16.695 10.75 17.375 C11.74 16.385 12.73 15.395 13.75 14.375 C14.74 15.035 15.73 15.695 16.75 16.375 C18.90274948 16.06659401 18.90274948 16.06659401 20.75 15.375 C18.77635231 13.1905338 18.77635231 13.1905338 15.75 11.875 C12.75 10.375 12.75 10.375 10.75 8.375 Z " fill="#010101" transform="translate(122.25,37.625)"/>
<path d="M0 0 C0.33 0.99 0.66 1.98 1 3 C-0.27358732 4.71275535 -1.61423077 6.37667033 -3 8 C-5.71507575 12.51879741 -5.50685723 16.86807054 -5 22 C-3.36849954 27.23797515 -1.24727558 30.52495634 3 34 C5.3018243 35.19158888 7.56240395 36.09187598 10 37 C10 37.66 10 38.32 10 39 C10.66 39 11.32 39 12 39 C11.625 41.4375 11.625 41.4375 11 44 C8.23547967 45.38226016 5.9538637 45.09525387 2.875 45.0625 C1.77929688 45.05347656 0.68359375 45.04445312 -0.4453125 45.03515625 C-1.28835937 45.02355469 -2.13140625 45.01195312 -3 45 C-3 44.34 -3 43.68 -3 43 C-3.99 43 -4.98 43 -6 43 C-6 42.34 -6 41.68 -6 41 C-6.99 40.67 -7.98 40.34 -9 40 C-11.53116771 36.53629681 -11.2150059 33.1567807 -11 29 C-10.773125 28.01 -10.54625 27.02 -10.3125 26 C-9.95946445 22.61085875 -10.83838222 20.93843574 -12.28125 17.92578125 C-13.62339386 14.32971102 -13.64160311 10.75796109 -13 7 C-9.7128668 1.48231212 -6.32457323 -0.35136518 0 0 Z " fill="#378E12" transform="translate(50,23)"/>
<path d="M0 0 C3.11741071 0.23091931 4.31934922 1.26854367 6.75 3.3125 C9.74980187 7.21224244 9.8078921 11.19351738 9.63671875 15.98046875 C8.72962636 20.28220138 6.5112874 22.58133386 3.609375 25.7734375 C1.26423492 29.01792742 1.35767561 31.86461472 1.23046875 35.765625 C0.88739493 39.09169658 -0.61703356 40.75720806 -3 43 C-6.23914229 45.15942819 -7.24859733 45.27232978 -11 45.25 C-11.86625 45.25515625 -12.7325 45.2603125 -13.625 45.265625 C-16 45 -16 45 -19 43 C-18.796875 41.1484375 -18.796875 41.1484375 -18 39 C-15.890625 37.7265625 -15.890625 37.7265625 -13.25 36.625 C-7.34831301 33.86806908 -4.62392454 31.17403434 -1.625 25.3125 C-0.45691324 19.12164015 -0.82889405 12.53643909 -4 7 C-1 8 -1 8 0.1484375 9.734375 C1.10970831 12.2918845 1.41022043 14.52945879 1.625 17.25 C1.69976562 18.14203125 1.77453125 19.0340625 1.8515625 19.953125 C1.90054688 20.62859375 1.94953125 21.3040625 2 22 C4.96949299 18.32424922 5.83453959 15.79835198 6 11 C4.48483372 6.98480937 3.5944747 5.39631647 0 3 C0 2.01 0 1.02 0 0 Z " fill="#468318" transform="translate(85,22)"/>
<path d="M0 0 C4.25676762 0.0546518 6.94723214 0.34756764 10.25 3.25 C12.98817998 6.4445433 13.25 7.98679083 13.25 12.25 C12.70795588 15.11199297 12.0118862 16.65819509 10.5 19.25 C5.37353523 22.40474755 0.11637622 21.63651088 -5.75 21.25 C-5.77888146 17.93751813 -5.79675799 14.62506833 -5.8125 11.3125 C-5.82087891 10.36697266 -5.82925781 9.42144531 -5.83789062 8.44726562 C-5.84111328 7.54814453 -5.84433594 6.64902344 -5.84765625 5.72265625 C-5.85289307 4.89000244 -5.85812988 4.05734863 -5.86352539 3.19946289 C-5.64087579 -0.62388565 -3.3012972 0.05860291 0 0 Z M0.25 6.25 C0.25 9.55 0.25 12.85 0.25 16.25 C2.23 15.59 4.21 14.93 6.25 14.25 C7.01956136 11.90466049 7.01956136 11.90466049 7.25 9.25 C6.16666667 7.33333333 6.16666667 7.33333333 4.25 6.25 C2.93 6.25 1.61 6.25 0.25 6.25 Z " fill="#010101" transform="translate(175.75,37.75)"/>
<path d="M0 0 C11.88163265 -0.57959184 11.88163265 -0.57959184 17 4 C18.72869779 7.45739557 18.48966895 11.21975568 18 15 C16.20606332 17.87029869 15.01736724 19.49131638 12 21 C9.95944995 21.07065617 7.91665743 21.08421976 5.875 21.0625 C2.966875 21.0315625 2.966875 21.0315625 0 21 C0 14.07 0 7.14 0 0 Z M6 6 C6 9.3 6 12.6 6 16 C9.81413002 14.8321734 9.81413002 14.8321734 12.3125 11.875 C12.539375 11.25625 12.76625 10.6375 13 10 C11.77409808 7.92022703 11.77409808 7.92022703 10 6 C8.68 6 7.36 6 6 6 Z " fill="#010101" transform="translate(197,38)"/>
<path d="M0 0 C1.2065625 0.0309375 1.2065625 0.0309375 2.4375 0.0625 C2.49808594 0.97773437 2.55867188 1.89296875 2.62109375 2.8359375 C2.70488281 4.02445313 2.78867187 5.21296875 2.875 6.4375 C2.95621094 7.62085938 3.03742188 8.80421875 3.12109375 10.0234375 C3.24834936 12.97768901 3.24834936 12.97768901 4.4375 15.0625 C5.7575 14.7325 7.0775 14.4025 8.4375 14.0625 C8.49808594 13.13566406 8.55867188 12.20882812 8.62109375 11.25390625 C8.70488281 10.05636719 8.78867187 8.85882813 8.875 7.625 C8.95621094 6.43003906 9.03742188 5.23507813 9.12109375 4.00390625 C9.4375 1.0625 9.4375 1.0625 10.4375 0.0625 C12.10367115 0.02186168 13.77138095 0.019779 15.4375 0.0625 C15.54595031 2.62614483 15.62499744 5.18516279 15.6875 7.75 C15.73777344 8.8318457 15.73777344 8.8318457 15.7890625 9.93554688 C15.8589213 13.76031629 15.68168548 15.65444612 13.66796875 19.01953125 C10.7978054 21.64841992 9.16339197 21.95718282 5.40234375 22.1953125 C2.35166956 21.98910391 0.7122465 21.06962926 -1.5625 19.0625 C-3.59517842 15.0821332 -3.80516475 11.74574012 -3.75 7.3125 C-3.74355469 6.16265625 -3.73710937 5.0128125 -3.73046875 3.828125 C-3.50315896 0.0854429 -3.50315896 0.0854429 0 0 Z " fill="#000000" transform="translate(289.5625,37.9375)"/>
<path d="M0 0 C1.65 0 3.3 0 5 0 C6.35091528 2.70183055 6.33858058 5.11808206 6.5625 8.125 C6.64628906 9.22070312 6.73007813 10.31640625 6.81640625 11.4453125 C6.87699219 12.28835937 6.93757812 13.13140625 7 14 C8.32 14.33 9.64 14.66 11 15 C12.41634833 12.16730334 12.3463005 9.52533562 12.5625 6.375 C12.64628906 5.18648437 12.73007813 3.99796875 12.81640625 2.7734375 C12.87699219 1.85820313 12.93757812 0.94296875 13 0 C14.66611905 -0.042721 16.33382885 -0.04063832 18 0 C19.85290352 1.85290352 19.21658627 4.76624631 19.25 7.25 C19.27578125 8.38953125 19.3015625 9.5290625 19.328125 10.703125 C18.88665994 15.13879779 17.30093512 17.69906488 14.1875 20.8125 C11.19555967 22.43669618 9.36225157 22.48032165 6 22 C3.30009338 20.20006226 1.4581135 18.916227 0 16 C-0.07181821 13.28239892 -0.09299506 10.59140612 -0.0625 7.875 C-0.05798828 7.12089844 -0.05347656 6.36679687 -0.04882812 5.58984375 C-0.03703499 3.72652873 -0.01909942 1.86325445 0 0 Z " fill="#010101" transform="translate(150,38)"/>
<path d="M0 0 C1.65 0 3.3 0 5 0 C5.66 1.65 6.32 3.3 7 5 C8.32 3.35 9.64 1.7 11 0 C12.65 0.33 14.3 0.66 16 1 C15.49701212 5.40114397 13.91227269 7.71195019 11 11 C11.825 11.9075 12.65 12.815 13.5 13.75 C16.03294997 16.53624497 16 16.87258261 16 21 C14.3125 21.8125 14.3125 21.8125 12 22 C9.25 19.5625 9.25 19.5625 7 17 C6.34 18.32 5.68 19.64 5 21 C3.35 21 1.7 21 0 21 C0 14.07 0 7.14 0 0 Z " fill="#010101" transform="translate(269,38)"/>
<path d="M0 0 C2.2265625 0.01171875 2.2265625 0.01171875 5 1 C6.86652675 3.40390707 8.09087936 6.0639047 9.375 8.8125 C9.74238281 9.53759766 10.10976563 10.26269531 10.48828125 11.00976562 C13.36574604 16.94385811 13.36574604 16.94385811 12 21 C10.68 21.33 9.36 21.66 8 22 C7.34 20.35 6.68 18.7 6 17 C0.96521559 17.23413974 0.96521559 17.23413974 -2.9375 20.0625 C-3.288125 20.701875 -3.63875 21.34125 -4 22 C-6.475 21.01 -6.475 21.01 -9 20 C-7.55676531 15.26210835 -5.62773267 11.01141849 -3.375 6.625 C-2.88773437 5.66400391 -2.88773437 5.66400391 -2.390625 4.68359375 C-1.59742593 3.12052499 -0.79922969 1.55999378 0 0 Z " fill="#010101" transform="translate(376,38)"/>
<path d="M0 0 C2.2265625 0.01171875 2.2265625 0.01171875 5 1 C6.86652675 3.40390707 8.09087936 6.0639047 9.375 8.8125 C9.74238281 9.53759766 10.10976563 10.26269531 10.48828125 11.00976562 C13.36574604 16.94385811 13.36574604 16.94385811 12 21 C10.68 21.33 9.36 21.66 8 22 C7.34 20.35 6.68 18.7 6 17 C0.96521559 17.23413974 0.96521559 17.23413974 -2.9375 20.0625 C-3.288125 20.701875 -3.63875 21.34125 -4 22 C-6.475 21.01 -6.475 21.01 -9 20 C-7.55676531 15.26210835 -5.62773267 11.01141849 -3.375 6.625 C-2.88773438 5.66400391 -2.88773438 5.66400391 -2.390625 4.68359375 C-1.59742593 3.12052499 -0.79922969 1.55999378 0 0 Z " fill="#010101" transform="translate(255,38)"/>
<path d="M0 0 C2.2265625 0.01171875 2.2265625 0.01171875 5 1 C6.86652675 3.40390707 8.09087936 6.0639047 9.375 8.8125 C9.74238281 9.53759766 10.10976562 10.26269531 10.48828125 11.00976562 C13.36574604 16.94385811 13.36574604 16.94385811 12 21 C10.68 21.33 9.36 21.66 8 22 C7.34 20.35 6.68 18.7 6 17 C0.96521559 17.23413974 0.96521559 17.23413974 -2.9375 20.0625 C-3.288125 20.701875 -3.63875 21.34125 -4 22 C-6.475 21.01 -6.475 21.01 -9 20 C-7.55676531 15.26210835 -5.62773267 11.01141849 -3.375 6.625 C-2.88773438 5.66400391 -2.88773438 5.66400391 -2.390625 4.68359375 C-1.59742593 3.12052499 -0.79922969 1.55999378 0 0 Z " fill="#010101" transform="translate(223,38)"/>
<path d="M0 0 C0.99 0.33 1.98 0.66 3 1 C3 1.66 3 2.32 3 3 C3.66 3 4.32 3 5 3 C7.553787 5.553787 7.39513023 7.53486679 7.65625 11.02734375 C7.91804076 13.31432361 7.91804076 13.31432361 10 16 C9.625 18 9.625 18 9 20 C9 20.99 9 21.98 9 23 C8.68330179 25.33564933 8.35179197 27.6693782 8 30 C6.35 29.67 4.7 29.34 3 29 C2.34 26.69 1.68 24.38 1 22 C-1.89234315 21.17361624 -3.88742431 21 -7 21 C-7 20.01 -7 19.02 -7 18 C-3.25 16.875 -3.25 16.875 -1 18 C0.14814997 15.70370006 0.30769809 13.92301914 0.5625 11.375 C0.64628906 10.55773438 0.73007813 9.74046875 0.81640625 8.8984375 C0.87699219 8.27195312 0.93757813 7.64546875 1 7 C0.01 7 -0.98 7 -2 7 C-2.33 7.66 -2.66 8.32 -3 9 C-3.75 6.75 -3.75 6.75 -4 4 C-2.0625 1.6875 -2.0625 1.6875 0 0 Z " fill="#DF9C34" transform="translate(69,24)"/>
<path d="M0 0 C1.32 0 2.64 0 4 0 C6.25 3 6.25 3 8 6 C9.32 4.02 10.64 2.04 12 0 C13.65 0.33 15.3 0.66 17 1 C17.33 1.99 17.66 2.98 18 4 C16.8203125 5.98046875 16.8203125 5.98046875 15.125 8.1875 C12.00000613 12.60010709 11.19495928 15.63861979 11 21 C7.25 22.125 7.25 22.125 5 21 C4.54296875 18.99609375 4.54296875 18.99609375 4.1875 16.4375 C3.24291436 11.10020714 1.17393057 7.33689749 -2 3 C-1.34 2.01 -0.68 1.02 0 0 Z " fill="#010101" transform="translate(233,38)"/>
<path d="M0 0 C0.66 0 1.32 0 2 0 C2 1.65 2 3.3 2 5 C3.32 5.33 4.64 5.66 6 6 C6.33 5.34 6.66 4.68 7 4 C7.99 4.33 8.98 4.66 10 5 C10 4.01 10 3.02 10 2 C10.66 2 11.32 2 12 2 C12 2.66 12 3.32 12 4 C17.57830016 4.12469099 17.57830016 4.12469099 23 3 C23.66 5.31 24.32 7.62 25 10 C27.475 10.495 27.475 10.495 30 11 C30.26932521 6.34947128 30.26932521 6.34947128 29 2 C29.66 1.34 30.32 0.68 31 0 C31.66 0.33 32.32 0.66 33 1 C33.9375 4.25 33.9375 4.25 34 8 C32.375 10.9375 32.375 10.9375 29 13 C21.77212309 13.99336005 15.39554465 13.56960631 9 10 C9 9.34 9 8.68 9 8 C8.0925 8.061875 7.185 8.12375 6.25 8.1875 C2.71017358 7.98327924 1.55068845 7.35448165 -1 5 C-0.67 3.35 -0.34 1.7 0 0 Z " fill="#A97839" transform="translate(47,43)"/>
<path d="M0 0 C2.31 0 4.62 0 7 0 C6.67 1.32 6.34 2.64 6 4 C6.99 4.33 7.98 4.66 9 5 C9 5.66 9 6.32 9 7 C7.06374902 7.98163422 5.12595461 8.96022454 3.1875 9.9375 C2.10855469 10.48277344 1.02960937 11.02804688 -0.08203125 11.58984375 C-3 13 -3 13 -6 14 C-7.20882096 16.00016466 -7.20882096 16.00016466 -8 18 C-8.66 18 -9.32 18 -10 18 C-9.67 16.35 -9.34 14.7 -9 13 C-12.57104439 14.87949705 -14.54744301 16.17053157 -16 20 C-16.66 20 -17.32 20 -18 20 C-17.52237053 14.98489056 -15.9261432 12.05884379 -13 8 C-13 7.67 -13 7.34 -13 7 C-8.38 6.67 -3.76 6.34 1 6 C1.33 4.35 1.66 2.7 2 1 C1.34 0.67 0.68 0.34 0 0 Z " fill="#218425" transform="translate(60,61)"/>
<path d="M0 0 C2 2 2 2 2.1953125 3.9453125 C2.13020833 5.96354167 2.06510417 7.98177083 2 10 C2.66 9.67 3.32 9.34 4 9 C4 13.62 4 18.24 4 23 C4.66 23 5.32 23 6 23 C7.6875 25.375 7.6875 25.375 9 28 C8.67 28.66 8.34 29.32 8 30 C7.34 29.67 6.68 29.34 6 29 C5.690625 29.78375 5.38125 30.5675 5.0625 31.375 C4 34 4 34 3 36 C2.34 36 1.68 36 1 36 C1.66 32.37 2.32 28.74 3 25 C1.68 25.33 0.36 25.66 -1 26 C-0.98259766 25.07767578 -0.98259766 25.07767578 -0.96484375 24.13671875 C-0.95582031 23.32847656 -0.94679688 22.52023438 -0.9375 21.6875 C-0.92589844 20.88699219 -0.91429688 20.08648437 -0.90234375 19.26171875 C-0.90342145 16.83138666 -0.90342145 16.83138666 -2 14 C-2.11904875 11.98170839 -2.17521712 9.95926229 -2.1875 7.9375 C-2.20167969 6.87402344 -2.21585938 5.81054688 -2.23046875 4.71484375 C-2 2 -2 2 0 0 Z " fill="#288A28" transform="translate(32,18)"/>
<path d="M0 0 C2.875 0.625 2.875 0.625 6 2 C9.05649192 7.69618948 8.7283053 14.88871245 7 21 C3.04 21.495 3.04 21.495 -1 22 C-2 19 -2 19 -1.109375 17.08984375 C-0.74328125 16.40019531 -0.3771875 15.71054687 0 15 C1.12011899 9.95043132 1.56384848 5.67525312 -1 1 C-0.67 0.67 -0.34 0.34 0 0 Z " fill="#C48E32" transform="translate(50,27)"/>
<path d="M0 0 C0.66 0 1.32 0 2 0 C0.94556379 3.16330864 0.61374292 4.06077138 -2 6 C-3.30317276 6.34936121 -4.61761639 6.65782206 -5.9375 6.9375 C-9.67228917 7.74223358 -11.56258039 8.95322549 -14 12 C-13.505 11.835 -13.01 11.67 -12.5 11.5 C-8.96555911 10.79311182 -5.60309299 10.93994845 -2 11 C-2 11.66 -2 12.32 -2 13 C-2.80824219 13.19335938 -3.61648437 13.38671875 -4.44921875 13.5859375 C-5.51785156 13.84632812 -6.58648437 14.10671875 -7.6875 14.375 C-8.74324219 14.63023438 -9.79898438 14.88546875 -10.88671875 15.1484375 C-13.70406766 15.91905489 -16.31668325 16.85498543 -19 18 C-19 17.34 -19 16.68 -19 16 C-20.44245638 16.39917032 -21.87888841 16.82014517 -23.3125 17.25 C-24.11300781 17.48203125 -24.91351563 17.7140625 -25.73828125 17.953125 C-28.52704237 19.24395052 -29.538222 20.30133291 -31 23 C-31.36100534 25.81829883 -31.36100534 25.81829883 -31.1875 28.75 C-31.16042969 29.73484375 -31.13335937 30.7196875 -31.10546875 31.734375 C-31.07066406 32.48203125 -31.03585938 33.2296875 -31 34 C-31.66 34 -32.32 34 -33 34 C-33.13536629 31.58145554 -33.23420279 29.17050217 -33.3125 26.75 C-33.35439453 26.06808594 -33.39628906 25.38617188 -33.43945312 24.68359375 C-33.48828125 22.671875 -33.48828125 22.671875 -33 19 C-30.41183776 16.38228289 -27.84130748 14.09243511 -24.0546875 13.90234375 C-22.03645833 13.93489583 -20.01822917 13.96744792 -18 14 C-18 13.01 -18 12.02 -18 11 C-17.01 11 -16.02 11 -15 11 C-15 10.01 -15 9.02 -15 8 C-14.34 8 -13.68 8 -13 8 C-13 7.34 -13 6.68 -13 6 C-12.39671875 5.87882813 -11.7934375 5.75765625 -11.171875 5.6328125 C-10.37265625 5.46523437 -9.5734375 5.29765625 -8.75 5.125 C-7.96109375 4.96257813 -7.1721875 4.80015625 -6.359375 4.6328125 C-4.03168856 4.00849925 -2.10968048 3.15161458 0 2 C0 1.34 0 0.68 0 0 Z " fill="#368E14" transform="translate(69,7)"/>
<path d="M0 0 C0.99 0 1.98 0 3 0 C2.7834375 0.7734375 2.7834375 0.7734375 2.5625 1.5625 C2.376875 2.366875 2.19125 3.17125 2 4 C1.5978125 5.7325 1.5978125 5.7325 1.1875 7.5 C0.64642245 10.93261579 0.64642245 10.93261579 2.41015625 13.046875 C6.0693519 15.8064494 9.84681433 16.65608356 14.25 17.75 C15.09046875 17.97042969 15.9309375 18.19085938 16.796875 18.41796875 C18.8614196 18.95756563 20.93031945 19.48045056 23 20 C23 20.33 23 20.66 23 21 C25.31 21.33 27.62 21.66 30 22 C30 22.33 30 22.66 30 23 C19.71206412 23.37036569 10.15495198 23.32131584 1 18 C-2.11182453 13.87893509 -3.35145973 11.37004447 -2.875 6.1875 C-2.43834009 3.09360478 -2.2705475 2.2705475 0 0 Z " fill="#278329" transform="translate(27,72)"/>
<path d="M0 0 C0.66 0 1.32 0 2 0 C2.4125 0.721875 2.825 1.44375 3.25 2.1875 C6.90219821 8.05710426 11.7439885 10.62271563 18 13 C15.44704003 15.6690036 14.01826222 16.88428838 10.25 17.3125 C6.11450604 16.91485635 4.16177328 15.65876389 1 13 C-1.7808541 8.6473588 -0.82483573 4.8665308 0 0 Z " fill="#F7F409" transform="translate(43,50)"/>
<path d="M0 0 C0.33 0 0.66 0 1 0 C1.4404247 5.37318128 1.4404247 5.37318128 1 8 C-1.4375 9.625 -1.4375 9.625 -4 11 C-4.89207179 14.0957107 -4.89207179 14.0957107 -5 17 C-3.02 16.67 -1.04 16.34 1 16 C1.33 17.32 1.66 18.64 2 20 C-0.97 19.67 -3.94 19.34 -7 19 C-7.33 17.68 -7.66 16.36 -8 15 C-12.71403788 15.47939368 -16.66579301 15.96834048 -21 18 C-20.06601394 14.85841051 -19.33205059 13.2674852 -16.75 11.1875 C-13.62298529 9.83719819 -11.3717092 9.76476447 -8 10 C-7.67 9.01 -7.34 8.02 -7 7 C-4.05610218 5.82244087 -3.10046087 5.96651304 0 7 C0 4.69 0 2.38 0 0 Z " fill="#B73219" transform="translate(75,3)"/>
<path d="M0 0 C0.66 0.33 1.32 0.66 2 1 C2.6271777 8.99651568 2.6271777 8.99651568 0.125 13 C-2.99353375 15.93509058 -4.80506732 16.17683257 -9 16.25 C-9.886875 16.27578125 -10.77375 16.3015625 -11.6875 16.328125 C-12.450625 16.21984375 -13.21375 16.1115625 -14 16 C-14.66 15.01 -15.32 14.02 -16 13 C-15.26394531 12.64808594 -14.52789062 12.29617187 -13.76953125 11.93359375 C-7.4361247 8.72924143 -3.57701023 6.16725902 0 0 Z " fill="#E4EF14" transform="translate(84,50)"/>
<path d="M0 0 C-0.50660156 0.80050781 -0.50660156 0.80050781 -1.0234375 1.6171875 C-4.42959451 7.3072417 -6.08323183 12.44579173 -7 19 C-10.875 17.25 -10.875 17.25 -12 15 C-12.55512815 10.36786507 -12.6364242 7.01827873 -10.125 3 C-6.70155528 -0.22206562 -4.6094546 -0.10020553 0 0 Z " fill="#F6F30A" transform="translate(49,24)"/>
<path d="M0 0 C0.99 0.33 1.98 0.66 3 1 C3 1.66 3 2.32 3 3 C3.66 3 4.32 3 5 3 C7.28717987 5.28717987 7.29522074 5.90638478 7.5625 9 C7.77684784 11.37969847 7.92338668 12.84677336 9 15 C6.36 15 3.72 15 1 15 C1 12.36 1 9.72 1 7 C0.01 7 -0.98 7 -2 7 C-2.33 7.66 -2.66 8.32 -3 9 C-3.75 6.75 -3.75 6.75 -4 4 C-2.0625 1.6875 -2.0625 1.6875 0 0 Z " fill="#BF7930" transform="translate(69,24)"/>
<path d="M0 0 C1.44010481 0.25662245 2.8770687 0.53090821 4.3125 0.8125 C5.11300781 0.96332031 5.91351563 1.11414063 6.73828125 1.26953125 C9 2 9 2 10.5390625 3.55859375 C11.89983824 5.17795798 11.89983824 5.17795798 13.97265625 5.328125 C18.11945186 5.26925398 18.11945186 5.26925398 22 4 C22 3.01 22 2.02 22 1 C22.66 1 23.32 1 24 1 C24 1.66 24 2.32 24 3 C24.99 3 25.98 3 27 3 C27 3.66 27 4.32 27 5 C26.34 5 25.68 5 25 5 C25 5.66 25 6.32 25 7 C22.17869486 9.22284647 20.20173375 9.97384933 16.625 10.4375 C9.78509579 9.61199432 4.96754082 5.48290269 0 1 C0 0.67 0 0.34 0 0 Z " fill="#2B8E2D" transform="translate(20,63)"/>
<path d="M0 0 C0.99 0.33 1.98 0.66 3 1 C4.04595554 5.10336403 4.4608666 7.166895 2.375 10.9375 C-2.84064103 14.12483618 -8.03922906 13.39273015 -14 13 C-15.04449911 9.86650268 -14.93423645 9.01031744 -14 6 C-11.69 6 -9.38 6 -7 6 C-6.67 6.99 -6.34 7.98 -6 9 C-2.99152582 10.22520264 -2.99152582 10.22520264 0 11 C0.26932521 6.34947128 0.26932521 6.34947128 -1 2 C-0.67 1.34 -0.34 0.68 0 0 Z " fill="#95572A" transform="translate(77,43)"/>
<path d="M0 0 C3.01319894 1.03903412 4.00046911 2.00069557 5.8125 4.6875 C7.26659572 8.74366175 7.20120695 10.8708511 6 15 C3.4375 17.9375 3.4375 17.9375 1 20 C0.92652344 18.89591797 0.92652344 18.89591797 0.8515625 17.76953125 C0.77679688 16.79371094 0.70203125 15.81789063 0.625 14.8125 C0.55539063 13.84957031 0.48578125 12.88664062 0.4140625 11.89453125 C-0.00215853 8.98491062 -0.79874096 6.67109226 -2 4 C-1.34 4 -0.68 4 0 4 C0 2.68 0 1.36 0 0 Z " fill="#EDF40E" transform="translate(85,25)"/>
<path d="M0 0 C2.31 0.33 4.62 0.66 7 1 C6.67 2.32 6.34 3.64 6 5 C-0.625 7 -0.625 7 -4 7 C-4 7.66 -4 8.32 -4 9 C-4.66 9 -5.32 9 -6 9 C-6 9.99 -6 10.98 -6 12 C-6.66 12 -7.32 12 -8 12 C-10.09230769 7.56923077 -10.09230769 7.56923077 -9.625 4.6875 C-9.41875 4.130625 -9.2125 3.57375 -9 3 C-8.01 3.33 -7.02 3.66 -6 4 C-3.36186139 3.26145768 -3.36186139 3.26145768 -1 2 C-0.67 1.34 -0.34 0.68 0 0 Z " fill="#21901C" transform="translate(60,6)"/>
<path d="M0 0 C2.68954427 4.03431641 2.67956926 7.2591954 2 12 C0.26016146 15.18970398 -1.44695493 17.44695493 -4 20 C-7.2578125 20.1953125 -7.2578125 20.1953125 -11.125 20.125 C-13.04699219 20.09792969 -13.04699219 20.09792969 -15.0078125 20.0703125 C-16.48894531 20.03550781 -16.48894531 20.03550781 -18 20 C-18 19.67 -18 19.34 -18 19 C-17.33613281 18.98582031 -16.67226562 18.97164062 -15.98828125 18.95703125 C-9.97837196 18.64634071 -9.97837196 18.64634071 -4.9375 15.5 C-4.298125 14.675 -3.65875 13.85 -3 13 C-2.67 12.67 -2.34 12.34 -2 12 C-1.79160985 10.35892758 -1.63248275 8.71143707 -1.5 7.0625 C-1.10977702 2.21955403 -1.10977702 2.21955403 0 0 Z " fill="#368B0E" transform="translate(87,48)"/>
<path d="M0 0 C2.31 0 4.62 0 7 0 C6.67 1.32 6.34 2.64 6 4 C6.99 4.33 7.98 4.66 9 5 C9 5.66 9 6.32 9 7 C5.535 8.485 5.535 8.485 2 10 C2 9.34 2 8.68 2 8 C-2.455 9.485 -2.455 9.485 -7 11 C-6.67 9.68 -6.34 8.36 -6 7 C-2.535 6.505 -2.535 6.505 1 6 C1.33 4.35 1.66 2.7 2 1 C1.34 0.67 0.68 0.34 0 0 Z " fill="#379A2F" transform="translate(60,61)"/>
<path d="M0 0 C0.66 0 1.32 0 2 0 C0.94556379 3.16330864 0.61374292 4.06077138 -2 6 C-3.30317276 6.34936121 -4.61761639 6.65782206 -5.9375 6.9375 C-9.67228917 7.74223358 -11.56258039 8.95322549 -14 12 C-13.505 11.835 -13.01 11.67 -12.5 11.5 C-8.96555911 10.79311182 -5.60309299 10.93994845 -2 11 C-2 11.66 -2 12.32 -2 13 C-4.12292296 13.52923572 -6.24842051 14.04815377 -8.375 14.5625 C-9.55835938 14.85253906 -10.74171875 15.14257812 -11.9609375 15.44140625 C-15 16 -15 16 -17 15 C-17 13.68 -17 12.36 -17 11 C-16.34 11 -15.68 11 -15 11 C-15 10.01 -15 9.02 -15 8 C-14.34 8 -13.68 8 -13 8 C-13 7.34 -13 6.68 -13 6 C-12.39671875 5.87882813 -11.7934375 5.75765625 -11.171875 5.6328125 C-10.37265625 5.46523437 -9.5734375 5.29765625 -8.75 5.125 C-7.96109375 4.96257813 -7.1721875 4.80015625 -6.359375 4.6328125 C-4.03168856 4.00849925 -2.10968048 3.15161458 0 2 C0 1.34 0 0.68 0 0 Z " fill="#3A880D" transform="translate(69,7)"/>
<path d="M0 0 C1.32 0 2.64 0 4 0 C3.67 2.31 3.34 4.62 3 7 C2.01 6.34 1.02 5.68 0 5 C-2.15274948 5.30840599 -2.15274948 5.30840599 -4 6 C-3.01 6.99 -2.02 7.98 -1 9 C-0.67 8.01 -0.34 7.02 0 6 C0.5625 7.9375 0.5625 7.9375 1 10 C0.67 10.33 0.34 10.66 0 11 C-2.33944736 10.71269945 -4.6739143 10.38063221 -7 10 C-7 7.69 -7 5.38 -7 3 C-6.21625 2.87625 -5.4325 2.7525 -4.625 2.625 C-1.85942178 2.20882007 -1.85942178 2.20882007 0 0 Z " fill="#C67418" transform="translate(66,37)"/>
<path d="M0 0 C1.125 3.75 1.125 3.75 0 6 C-1.92578125 6.78125 -1.92578125 6.78125 -4.3125 7.5 C-6.74464767 8.2396945 -8.90597352 8.94982979 -11.15234375 10.1484375 C-11.76207031 10.42945312 -12.37179688 10.71046875 -13 11 C-15.25 10.125 -15.25 10.125 -17 9 C-17.33 9.66 -17.66 10.32 -18 11 C-18.33 10.01 -18.66 9.02 -19 8 C-18.0925 7.401875 -17.185 6.80375 -16.25 6.1875 C-13.77098519 4.51893234 -11.36682089 2.82063145 -9 1 C-9.66 2.98 -10.32 4.96 -11 7 C-7.535 6.505 -7.535 6.505 -4 6 C-3.67 5.01 -3.34 4.02 -3 3 C-2.34 3.33 -1.68 3.66 -1 4 C-0.67 2.68 -0.34 1.36 0 0 Z " fill="#2C832C" transform="translate(77,80)"/>
<path d="M0 0 C0.66 0.33 1.32 0.66 2 1 C2.6271777 8.99651568 2.6271777 8.99651568 0.125 13 C-2.99353375 15.93509058 -4.80506732 16.17683257 -9 16.25 C-9.886875 16.27578125 -10.77375 16.3015625 -11.6875 16.328125 C-12.450625 16.21984375 -13.21375 16.1115625 -14 16 C-14.66 15.01 -15.32 14.02 -16 13 C-10.25 10 -10.25 10 -8 10 C-8 10.66 -8 11.32 -8 12 C-8.99 12.33 -9.98 12.66 -11 13 C-11.33 13.66 -11.66 14.32 -12 15 C-8.535 14.505 -8.535 14.505 -5 14 C-4.67 13.01 -4.34 12.02 -4 11 C-3.01 11 -2.02 11 -1 11 C-0.83197949 9.54182203 -0.66562857 8.0834516 -0.5 6.625 C-0.4071875 5.81289063 -0.314375 5.00078125 -0.21875 4.1640625 C0.03352351 2.03087175 0.03352351 2.03087175 0 0 Z " fill="#D8F01F" transform="translate(84,50)"/>
<path d="M0 0 C0.66 0 1.32 0 2 0 C-0.83764841 6.96513702 -6.46432063 10.09705556 -13 13 C-12.67 13.66 -12.34 14.32 -12 15 C-9.87423218 15.46651207 -9.87423218 15.46651207 -7.4375 15.625 C-6.61121094 15.69976562 -5.78492187 15.77453125 -4.93359375 15.8515625 C-4.29550781 15.90054688 -3.65742187 15.94953125 -3 16 C-3 16.33 -3 16.66 -3 17 C-4.60379341 17.05416188 -6.20811406 17.09286638 -7.8125 17.125 C-8.70582031 17.14820312 -9.59914063 17.17140625 -10.51953125 17.1953125 C-13 17 -13 17 -16 15 C-15.796875 13.1484375 -15.796875 13.1484375 -15 11 C-12.890625 9.7265625 -12.890625 9.7265625 -10.25 8.625 C-5.41825907 6.40930166 -3.1362224 4.21429885 0 0 Z " fill="#6CA712" transform="translate(82,50)"/>
<path d="M0 0 C0 1.65 0 3.3 0 5 C-1.8253125 5.185625 -1.8253125 5.185625 -3.6875 5.375 C-7.06479059 5.78891306 -9.89756695 6.54573451 -13 8 C-12.06601394 4.85841051 -11.33205059 3.2674852 -8.75 1.1875 C-5.62298529 -0.16280181 -3.3717092 -0.23523553 0 0 Z " fill="#D9EC1D" transform="translate(67,13)"/>
<path d="M0 0 C0.66 0.33 1.32 0.66 2 1 C2.92350727 3.77052181 3.16329585 5.56688758 3.1875 8.4375 C3.20167969 9.19933594 3.21585938 9.96117187 3.23046875 10.74609375 C2.97612666 13.23347315 2.24017196 14.84808106 1 17 C1 16.34 1 15.68 1 15 C0.34 15 -0.32 15 -1 15 C-1 14.34 -1 13.68 -1 13 C-1.66 12.67 -2.32 12.34 -3 12 C-2.25 5.25 -2.25 5.25 0 3 C0 2.01 0 1.02 0 0 Z " fill="#E19228" transform="translate(55,31)"/>
<path d="M0 0 C0.99 0 1.98 0 3 0 C3 0.99 3 1.98 3 3 C5.64 2.01 8.28 1.02 11 0 C11 1.98 11 3.96 11 6 C7.37 6.33 3.74 6.66 0 7 C0 4.69 0 2.38 0 0 Z " fill="#CD2D13" transform="translate(74,23)"/>
<path d="M0 0 C1.65 0 3.3 0 5 0 C5.33 0.99 5.66 1.98 6 3 C4.72641268 4.71275535 3.38576923 6.37667033 2 8 C0.14971015 11.08820618 -0.34296604 13.67756979 -0.625 17.25 C-0.69976562 18.14203125 -0.77453125 19.0340625 -0.8515625 19.953125 C-0.90054688 20.62859375 -0.94953125 21.3040625 -1 22 C-2.32 21.67 -3.64 21.34 -5 21 C-4.34 20.67 -3.68 20.34 -3 20 C-2.72109816 17.90866226 -2.72109816 17.90866226 -2.6875 15.4375 C-2.27297103 9.89716082 -0.30871552 6.37092309 3 2 C2.01 1.34 1.02 0.68 0 0 Z " fill="#729C10" transform="translate(45,23)"/>
<path d="M0 0 C0.66 0 1.32 0 2 0 C1.67 1.32 1.34 2.64 1 4 C1.99 4 2.98 4 4 4 C5.6875 6.5 5.6875 6.5 7 9 C5.02 9.99 5.02 9.99 3 11 C3.33 9.35 3.66 7.7 4 6 C0.42895561 7.87949705 -1.54744301 9.17053157 -3 13 C-3.66 13 -4.32 13 -5 13 C-4.52237053 7.98489056 -2.9261432 5.05884379 0 1 C0 0.67 0 0.34 0 0 Z " fill="#348535" transform="translate(47,68)"/>
<path d="M0 0 C0.99 0.33 1.98 0.66 3 1 C3.33 3.64 3.66 6.28 4 9 C2.02 8.34 0.04 7.68 -2 7 C-2.33 7.66 -2.66 8.32 -3 9 C-3.75 6.75 -3.75 6.75 -4 4 C-2.0625 1.6875 -2.0625 1.6875 0 0 Z " fill="#D48A3D" transform="translate(69,24)"/>
<path d="M0 0 C1.10844919 3.32534757 0.84454356 5.62182575 0 9 C-0.66 9 -1.32 9 -2 9 C-2.33 9.66 -2.66 10.32 -3 11 C-4.84765625 11.6328125 -4.84765625 11.6328125 -7.0625 12.125 C-7.79597656 12.29257813 -8.52945313 12.46015625 -9.28515625 12.6328125 C-9.85105469 12.75398438 -10.41695313 12.87515625 -11 13 C-10.67 11.68 -10.34 10.36 -10 9 C-9.01 9 -8.02 9 -7 9 C-5.35416218 7.53659199 -5.35416218 7.53659199 -3.875 5.625 C-3.35679688 4.99851562 -2.83859375 4.37203125 -2.3046875 3.7265625 C-0.93661909 2.02526828 -0.93661909 2.02526828 0 0 Z " fill="#1D8D1A" transform="translate(76,75)"/>
<path d="M0 0 C2.97 0 5.94 0 9 0 C9 2.31 9 4.62 9 7 C8.34 6.67 7.68 6.34 7 6 C7 4.68 7 3.36 7 2 C5.02 2 3.04 2 1 2 C1.391875 2.556875 1.78375 3.11375 2.1875 3.6875 C2.455625 4.450625 2.72375 5.21375 3 6 C1.625 8.75 1.625 8.75 0 11 C-0.66 10.34 -1.32 9.68 -2 9 C-1.67 8.67 -1.34 8.34 -1 8 C-0.76924918 6.65252916 -0.58846937 5.29622435 -0.4375 3.9375 C-0.293125 2.638125 -0.14875 1.33875 0 0 Z " fill="#D71C22" transform="translate(76,3)"/>
<path d="M0 0 C3 1 3 1 5.25 3.375 C8.43756737 6.41767795 10.91485494 7.47808321 15 9 C15 9.66 15 10.32 15 11 C15.66 11 16.32 11 17 11 C16.67 12.65 16.34 14.3 16 16 C15.01 15.34 14.02 14.68 13 14 C13.66 13.67 14.32 13.34 15 13 C14.41992188 12.70867188 13.83984375 12.41734375 13.2421875 12.1171875 C7.92911134 9.32913764 3.93982372 6.54595045 0 2 C0 1.34 0 0.68 0 0 Z " fill="#759E16" transform="translate(45,51)"/>
<path d="M0 0 C3.25511789 0.56122722 4.99840071 1.33120095 7 4 C8.50162161 8.91439799 8.62283376 14.13149871 7 19 C6.34 18.67 5.68 18.34 5 18 C5.226875 16.96875 5.45375 15.9375 5.6875 14.875 C6.0435361 10.4601524 5.38764266 8.66673694 3 5 C2.01 4.34 1.02 3.68 0 3 C0 2.01 0 1.02 0 0 Z " fill="#44800C" transform="translate(85,22)"/>
<path d="M0 0 C0.66 0 1.32 0 2 0 C2 0.66 2 1.32 2 2 C2.99 2 3.98 2 5 2 C5 2.66 5 3.32 5 4 C4.34 4 3.68 4 3 4 C3 4.66 3 5.32 3 6 C-1.15267176 9.11450382 -1.15267176 9.11450382 -4.3125 8.6875 C-4.869375 8.460625 -5.42625 8.23375 -6 8 C-5.34 8 -4.68 8 -4 8 C-4 7.34 -4 6.68 -4 6 C-4.66 5.67 -5.32 5.34 -6 5 C-4.02 4.34 -2.04 3.68 0 3 C0 2.01 0 1.02 0 0 Z " fill="#2D832B" transform="translate(42,64)"/>
<path d="M0 0 C2.97 0.495 2.97 0.495 6 1 C6 2.32 6 3.64 6 5 C6.66 4.34 7.32 3.68 8 3 C8.66 4.32 9.32 5.64 10 7 C9.01 6.67 8.02 6.34 7 6 C6.690625 6.78375 6.38125 7.5675 6.0625 8.375 C5 11 5 11 4 13 C3.34 13 2.68 13 2 13 C2.66 9.37 3.32 5.74 4 2 C2.68 2.33 1.36 2.66 0 3 C0 2.01 0 1.02 0 0 Z " fill="#226D1F" transform="translate(31,41)"/>
<path d="M0 0 C0.99 0.33 1.98 0.66 3 1 C3.99 1 4.98 1 6 1 C5.67 2.65 5.34 4.3 5 6 C4.34 6 3.68 6 3 6 C3 6.99 3 7.98 3 9 C2.34 9 1.68 9 1 9 C-1.09230769 4.56923077 -1.09230769 4.56923077 -0.625 1.6875 C-0.41875 1.130625 -0.2125 0.57375 0 0 Z " fill="#268529" transform="translate(51,9)"/>
<path d="M0 0 C0.99 0.33 1.98 0.66 3 1 C3.8125 4.1875 3.8125 4.1875 4 8 C1.5625 10.9375 1.5625 10.9375 -1 13 C-1.99 12.67 -2.98 12.34 -4 12 C-2.68 11.67 -1.36 11.34 0 11 C0.26932521 6.34947128 0.26932521 6.34947128 -1 2 C-0.67 1.34 -0.34 0.68 0 0 Z " fill="#9D7826" transform="translate(77,43)"/>
<path d="M0 0 C0.66 0 1.32 0 2 0 C2 0.66 2 1.32 2 2 C2.99 2.33 3.98 2.66 5 3 C4.67 3.66 4.34 4.32 4 5 C4.66 5 5.32 5 6 5 C6 5.66 6 6.32 6 7 C3.69 7.33 1.38 7.66 -1 8 C-2.2077558 4.37673261 -1.54311128 3.35853631 0 0 Z " fill="#C77425" transform="translate(50,41)"/>
<path d="M0 0 C2.33294775 -0.04241723 4.66702567 -0.04092937 7 0 C8 1 8 1 8.09765625 3.28515625 C8.08605469 4.20167969 8.07445313 5.11820313 8.0625 6.0625 C8.05347656 6.98160156 8.04445313 7.90070312 8.03515625 8.84765625 C8.02355469 9.55792969 8.01195313 10.26820312 8 11 C5.6875 11.625 5.6875 11.625 3 12 C2.01 11.34 1.02 10.68 0 10 C1.98 10 3.96 10 6 10 C6 7.03 6 4.06 6 1 C4.02 1 2.04 1 0 1 C0 0.67 0 0.34 0 0 Z " fill="#A0261C" transform="translate(86,10)"/>
<path d="M0 0 C0.66 0 1.32 0 2 0 C1.3125 3.375 1.3125 3.375 0 7 C-2.5625 8.25 -2.5625 8.25 -5 9 C-5.33 9.99 -5.66 10.98 -6 12 C-6.66 12 -7.32 12 -8 12 C-7.34 10.02 -6.68 8.04 -6 6 C-5.01 6 -4.02 6 -3 6 C-3 5.34 -3 4.68 -3 4 C-2.34 4 -1.68 4 -1 4 C-0.67 2.68 -0.34 1.36 0 0 Z " fill="#239225" transform="translate(75,73)"/>
<path d="M0 0 C0.66 0 1.32 0 2 0 C2 0.66 2 1.32 2 2 C5.82517513 4.39073445 9.59665524 4.55966552 14 5 C14 4.01 14 3.02 14 2 C15.32 2.66 16.64 3.32 18 4 C14.18365489 6.69389067 11.67039834 7.66719976 7 7 C1.29230769 3.87692308 1.29230769 3.87692308 0 0 Z " fill="#CEEC1C" transform="translate(43,60)"/>
<path d="M0 0 C1.32 0.33 2.64 0.66 4 1 C4 3.64 4 6.28 4 9 C2.68 9 1.36 9 0 9 C0 6.03 0 3.06 0 0 Z " fill="#F9C056" transform="translate(71,40)"/>
<path d="M0 0 C-1.32 1.65 -2.64 3.3 -4 5 C-4 4.01 -4 3.02 -4 2 C-7.16115776 3.36983503 -7.9927092 3.9890638 -10 7 C-10.45139459 9.0492094 -10.45139459 9.0492094 -10.625 11.1875 C-10.74875 12.445625 -10.8725 13.70375 -11 15 C-11.33 15 -11.66 15 -12 15 C-12.6271777 7.00348432 -12.6271777 7.00348432 -10.125 3 C-6.70155528 -0.22206562 -4.6094546 -0.10020553 0 0 Z " fill="#D2EF20" transform="translate(49,24)"/>
<path d="M0 0 C-2.38573379 1.89213369 -4.07175348 3.02391783 -7 4 C-7 3.34 -7 2.68 -7 2 C-11.455 3.485 -11.455 3.485 -16 5 C-15.67 3.68 -15.34 2.36 -15 1 C-10.03926578 -0.32286246 -5.08888488 -0.08893197 0 0 Z " fill="#2A932B" transform="translate(69,67)"/>
<path d="M0 0 C0.99 0 1.98 0 3 0 C3.66 2.31 4.32 4.62 5 7 C4.34 6.67 3.68 6.34 3 6 C3 5.01 3 4.02 3 3 C-1.455 3.495 -1.455 3.495 -6 4 C-6 4.66 -6 5.32 -6 6 C-6.66 6 -7.32 6 -8 6 C-7.67 4.35 -7.34 2.7 -7 1 C-5.5459375 1.0309375 -5.5459375 1.0309375 -4.0625 1.0625 C-1.12534105 1.35618499 -1.12534105 1.35618499 0 0 Z " fill="#AF6A28" transform="translate(67,46)"/>
<path d="M0 0 C0.66 0.66 1.32 1.32 2 2 C2.66 1.67 3.32 1.34 4 1 C4 4.63 4 8.26 4 12 C3.34 12 2.68 12 2 12 C1.67 10.35 1.34 8.7 1 7 C1.66 7 2.32 7 3 7 C3 6.34 3 5.68 3 5 C1.68 4.67 0.36 4.34 -1 4 C-0.67 2.68 -0.34 1.36 0 0 Z " fill="#218619" transform="translate(32,26)"/>
<path d="M0 0 C0.99 0 1.98 0 3 0 C1.17391304 8.2173913 1.17391304 8.2173913 -3 11 C-2.88590407 9.54077307 -2.75834456 8.08259402 -2.625 6.625 C-2.55539063 5.81289062 -2.48578125 5.00078125 -2.4140625 4.1640625 C-2 2 -2 2 0 0 Z " fill="#328635" transform="translate(27,72)"/>
<path d="M0 0 C1.4606285 2.64738916 2 3.89448334 2 7 C3.65 6.67 5.3 6.34 7 6 C7.66 7.32 8.32 8.64 9 10 C7.02 10.33 5.04 10.66 3 11 C0.84694043 7.14243493 -0.39253254 4.44870215 0 0 Z " fill="#1E7520" transform="translate(12,48)"/>
<path d="M0 0 C1.8125 0.375 1.8125 0.375 4 1 C4.7425 1.185625 5.485 1.37125 6.25 1.5625 C6.8275 1.706875 7.405 1.85125 8 2 C8 3.65 8 5.3 8 7 C7.67 6.34 7.34 5.68 7 5 C4.14829211 4.01665245 2.10359391 4 -1 4 C-1 1 -1 1 0 0 Z " fill="#DA8E27" transform="translate(63,41)"/>
<path d="M0 0 C1.32 0.33 2.64 0.66 4 1 C3.67 2.32 3.34 3.64 3 5 C0.69 5 -1.62 5 -4 5 C-3.67 4.01 -3.34 3.02 -3 2 C-2.01 2 -1.02 2 0 2 C0 1.34 0 0.68 0 0 Z " fill="#FBF506" transform="translate(76,60)"/>
<path d="M0 0 C0.66 0.66 1.32 1.32 2 2 C1.5390625 4.8203125 1.5390625 4.8203125 0.625 8.125 C0.32851563 9.22070312 0.03203125 10.31640625 -0.2734375 11.4453125 C-0.51320313 12.28835937 -0.75296875 13.13140625 -1 14 C-1.33 14 -1.66 14 -2 14 C-2.05389087 12.04196493 -2.09274217 10.08351091 -2.125 8.125 C-2.14820312 7.03445312 -2.17140625 5.94390625 -2.1953125 4.8203125 C-2 2 -2 2 0 0 Z " fill="#378336" transform="translate(32,18)"/>
<path d="M0 0 C1.65 0 3.3 0 5 0 C5 2.64 5 5.28 5 8 C4.4121875 7.2265625 4.4121875 7.2265625 3.8125 6.4375 C2.9153125 5.7259375 2.9153125 5.7259375 2 5 C-0.65466049 5.23043864 -0.65466049 5.23043864 -3 6 C-2.01 4.02 -1.02 2.04 0 0 Z " fill="#1F921D" transform="translate(49,68)"/>
<path d="M0 0 C2.08940868 3.13411302 2.27364412 3.97450472 2.25 7.5625 C2.25515625 8.34753906 2.2603125 9.13257813 2.265625 9.94140625 C2 12 2 12 0 14 C-0.19456705 12.04235617 -0.38044247 10.08384679 -0.5625 8.125 C-0.66691406 7.03445312 -0.77132812 5.94390625 -0.87890625 4.8203125 C-1 2 -1 2 0 0 Z " fill="#2A8016" transform="translate(87,48)"/>
<path d="M0 0 C1.98 0 3.96 0 6 0 C6 3 6 3 4 6 C3.01 6 2.02 6 1 6 C0.67 4.02 0.34 2.04 0 0 Z " fill="#1B941B" transform="translate(10,29)"/>
<path d="M0 0 C0.66 0.33 1.32 0.66 2 1 C1.67 3.31 1.34 5.62 1 8 C-0.65 7.67 -2.3 7.34 -4 7 C-4.33 6.01 -4.66 5.02 -5 4 C-3.35 4 -1.7 4 0 4 C0 2.68 0 1.36 0 0 Z " fill="#C9892E" transform="translate(76,46)"/>
<path d="M0 0 C0.4125 0.474375 0.825 0.94875 1.25 1.4375 C3.182185 3.16266518 4.48192275 3.56584875 7 4 C7.33 5.98 7.66 7.96 8 10 C7.01 9.67 6.02 9.34 5 9 C4.67 9.99 4.34 10.98 4 12 C4.0825 11.0925 4.165 10.185 4.25 9.25 C3.94651946 5.30475293 2.89074879 4.52940519 0 2 C0 1.34 0 0.68 0 0 Z " fill="#48961B" transform="translate(38,41)"/>
<path d="M0 0 C0 0.66 0 1.32 0 2 C-3.96 2.66 -7.92 3.32 -12 4 C-12 3.34 -12 2.68 -12 2 C-8.09971775 -0.60018816 -4.52565431 -0.15085514 0 0 Z " fill="#859710" transform="translate(67,18)"/>
<path d="M0 0 C0.66 0 1.32 0 2 0 C3.05771739 1.63064764 4.05273046 3.30280873 5 5 C5.99 6.485 5.99 6.485 7 8 C6.401875 7.690625 5.80375 7.38125 5.1875 7.0625 C2.91043228 5.89790296 2.91043228 5.89790296 0 5 C-0.33 5.99 -0.66 6.98 -1 8 C-0.67 5.36 -0.34 2.72 0 0 Z " fill="#CFED22" transform="translate(43,50)"/>
<path d="M0 0 C0.33 0.66 0.66 1.32 1 2 C1.66 2.33 2.32 2.66 3 3 C2.01 3.495 2.01 3.495 1 4 C0.34227572 7.02934491 0.34227572 7.02934491 0 10 C-0.66 10 -1.32 10 -2 10 C-2 7.03 -2 4.06 -2 1 C-1.34 0.67 -0.68 0.34 0 0 Z " fill="#1D911E" transform="translate(14,35)"/>
<path d="M0 0 C0.66 0 1.32 0 2 0 C2 1.65 2 3.3 2 5 C2.66 5 3.32 5 4 5 C2.25 8.875 2.25 8.875 0 10 C0 6.7 0 3.4 0 0 Z " fill="#D9F322" transform="translate(86,35)"/>
<path d="M0 0 C0.99 0 1.98 0 3 0 C2.83628906 0.54140625 2.67257813 1.0828125 2.50390625 1.640625 C1.91409413 4.40222593 1.90390692 6.92818139 1.9375 9.75 C1.94652344 10.73484375 1.95554688 11.7196875 1.96484375 12.734375 C1.97644531 13.48203125 1.98804688 14.2296875 2 15 C1.34 15 0.68 15 0 15 C0 10.05 0 5.1 0 0 Z " fill="#449C0B" transform="translate(36,26)"/>
<path d="M0 0 C0.66 0.33 1.32 0.66 2 1 C1.67 4.3 1.34 7.6 1 11 C-0.32 10.67 -1.64 10.34 -3 10 C-2.34 9.67 -1.68 9.34 -1 9 C-0.53348793 6.87423218 -0.53348793 6.87423218 -0.375 4.4375 C-0.30023438 3.61121094 -0.22546875 2.78492188 -0.1484375 1.93359375 C-0.09945312 1.29550781 -0.05046875 0.65742187 0 0 Z " fill="#7A9F18" transform="translate(43,34)"/>
<path d="M0 0 C0 0.66 0 1.32 0 2 C-4.62 2 -9.24 2 -14 2 C-14 1.67 -14 1.34 -14 1 C-12.23103898 0.63659714 -10.45973374 0.28459117 -8.6875 -0.0625 C-7.70136719 -0.25972656 -6.71523438 -0.45695312 -5.69921875 -0.66015625 C-3 -1 -3 -1 0 0 Z " fill="#1E951F" transform="translate(57,92)"/>
<path d="M0 0 C2.0625 0.4375 2.0625 0.4375 4 1 C3.67 1.99 3.34 2.98 3 4 C-0.3 4 -3.6 4 -7 4 C-7.33 3.34 -7.66 2.68 -8 2 C-6.865625 1.855625 -5.73125 1.71125 -4.5625 1.5625 C-1.19222799 1.38828522 -1.19222799 1.38828522 0 0 Z " fill="#8B6132" transform="translate(70,52)"/>
<path d="M0 0 C0.12375 0.639375 0.2475 1.27875 0.375 1.9375 C0.58125 2.618125 0.7875 3.29875 1 4 C1.66 4.33 2.32 4.66 3 5 C1.02 5.99 1.02 5.99 -1 7 C-1.33 6.34 -1.66 5.68 -2 5 C-5.02934491 4.34227572 -5.02934491 4.34227572 -8 4 C-8 3.67 -8 3.34 -8 3 C-5.36 3 -2.72 3 0 3 C0 2.01 0 1.02 0 0 Z " fill="#338829" transform="translate(51,18)"/>
<path d="M0 0 C1.9375 0.75 1.9375 0.75 4 2 C4.75 4.125 4.75 4.125 5 6 C4.01 6.33 3.02 6.66 2 7 C1.34 4.69 0.68 2.38 0 0 Z " fill="#A96321" transform="translate(56,30)"/>
<path d="M0 0 C4.455 0.99 4.455 0.99 9 2 C8.01 2.495 8.01 2.495 7 3 C6.67 3.99 6.34 4.98 6 6 C3.97945196 4.35830472 1.97956942 2.69088222 0 1 C0 0.67 0 0.34 0 0 Z " fill="#368B37" transform="translate(20,63)"/>
<path d="M0 0 C1.9375 0.8125 1.9375 0.8125 4 2 C4.33 2.99 4.66 3.98 5 5 C3.68 5 2.36 5 1 5 C0.34 5.66 -0.32 6.32 -1 7 C-1.33 6.01 -1.66 5.02 -2 4 C-1.34 4 -0.68 4 0 4 C0 2.68 0 1.36 0 0 Z " fill="#E3E621" transform="translate(85,25)"/>
<path d="M0 0 C0.66 0 1.32 0 2 0 C1.42415568 2.38564077 0.77772405 4.66682784 0 7 C-0.99 7 -1.98 7 -3 7 C-2.38722388 4.03824877 -1.74627478 2.61941217 0 0 Z " fill="#F9F605" transform="translate(83,54)"/>
<path d="M0 0 C2.97 0.495 2.97 0.495 6 1 C6 2.65 6 4.3 6 6 C4.02 5.01 2.04 4.02 0 3 C0 2.01 0 1.02 0 0 Z " fill="#E89832" transform="translate(67,27)"/>
<path d="M0 0 C0.66 0 1.32 0 2 0 C0.63055898 2.94956528 -0.87830409 5.52468811 -3 8 C-3.66 8 -4.32 8 -5 8 C-3.63055898 5.05043472 -2.12169591 2.47531189 0 0 Z " fill="#779509" transform="translate(82,50)"/>
<path d="M0 0 C0.66 0 1.32 0 2 0 C2 0.66 2 1.32 2 2 C2.99 2.33 3.98 2.66 5 3 C4.67 3.66 4.34 4.32 4 5 C4.66 5 5.32 5 6 5 C6 5.66 6 6.32 6 7 C3.42124782 5.96849913 2.21229635 5.35028898 0.75 2.9375 C0 1 0 1 0 0 Z " fill="#BB7B28" transform="translate(50,41)"/>
<path d="M0 0 C0.33 0 0.66 0 1 0 C1.20140476 3.62528568 0.85776765 5.86501708 -1 9 C-1 8.34 -1 7.68 -1 7 C-1.66 7 -2.32 7 -3 7 C-2.67 5.35 -2.34 3.7 -2 2 C-1.34 2 -0.68 2 0 2 C0 1.34 0 0.68 0 0 Z " fill="#D18626" transform="translate(57,39)"/>
<path d="M0 0 C-0.33 1.32 -0.66 2.64 -1 4 C-3.97 3.505 -3.97 3.505 -7 3 C-4.49955934 -0.00052879 -4.2621484 0 0 0 Z " fill="#FBF10F" transform="translate(67,14)"/>
<path d="M0 0 C0.33 0.66 0.66 1.32 1 2 C1.66 2 2.32 2 3 2 C3.33 2.99 3.66 3.98 4 5 C2.5625 7.1875 2.5625 7.1875 1 9 C1.0928125 7.824375 1.0928125 7.824375 1.1875 6.625 C1.125625 5.75875 1.06375 4.8925 1 4 C0.01 3.34 -0.98 2.68 -2 2 C-1.34 2 -0.68 2 0 2 C0 1.34 0 0.68 0 0 Z " fill="#228F19" transform="translate(35,39)"/>
<path d="M0 0 C0.66 0 1.32 0 2 0 C2 1.98 2 3.96 2 6 C0.68 5.34 -0.64 4.68 -2 4 C-2 3.34 -2 2.68 -2 2 C-1.34 2 -0.68 2 0 2 C0 1.34 0 0.68 0 0 Z " fill="#E8F71D" transform="translate(40,37)"/>
<path d="M0 0 C0.33 0 0.66 0 1 0 C1 1.65 1 3.3 1 5 C-1.31 5 -3.62 5 -6 5 C-5.67 4.34 -5.34 3.68 -5 3 C-3.66666667 2.66666667 -2.33333333 2.33333333 -1 2 C-0.67 1.34 -0.34 0.68 0 0 Z " fill="#30822D" transform="translate(16,23)"/>
<path d="M0 0 C0.66 0 1.32 0 2 0 C2 1.32 2 2.64 2 4 C0.68 4 -0.64 4 -2 4 C-1.34 2.68 -0.68 1.36 0 0 Z " fill="#39743D" transform="translate(36,60)"/>
<path d="M0 0 C0.33 0.66 0.66 1.32 1 2 C0.34 2.66 -0.32 3.32 -1 4 C-0.67 2.68 -0.34 1.36 0 0 Z " fill="#44894A" transform="translate(34,78)"/>
<path d="" fill="#3F7F3F" transform="translate(0,0)"/>
</svg>
